STARTFONT 2.1
FONT -sun-conga-bold-r-normal--20-200-75-75-p-139-adobe-fontspecific
SIZE 20 75 75
FONTBOUNDINGBOX 32 23 -5 -4

STARTPROPERTIES 28
FOUNDRY "sun"
FAMILY_NAME "conga"
WEIGHT_NAME "bold"
SLANT "r"
SETWIDTH_NAME "normal"
ADD_STYLE_NAME ""
PIXEL_SIZE 21
POINT_SIZE 200
RESOLUTION_X 75
RESOLUTION_Y 75
SPACING "p"
AVERAGE_WIDTH 139
CHARSET_REGISTRY "adobe"
CHARSET_ENCODING "fontspecific"
COPYRIGHT "© 1999 Sun Microsystems, Inc."
RAW_PIXELSIZE 1000
RAW_POINTSIZE 964
RAW_ASCENT 928
RAW_DESCENT 219
RAW_AVERAGE_WIDTH 6696
FACE_NAME "CongaBoldrg"
_XMBDFED_INFO "Edited with xmbdfed 2.4."
WEIGHT 10
X_HEIGHT -2
QUAD_WIDTH 14
DEFAULT_CHAR 4
FONT_DESCENT 4
FONT_ASCENT 19
ENDPROPERTIES

CHARS 203

STARTCHAR char32
ENCODING 32
SWIDTH 43 0
DWIDTH 10 0
BBX 0 0 0 0
BITMAP
ENDCHAR

STARTCHAR char33
ENCODING 33
SWIDTH 21 0
DWIDTH 5 0
BBX 4 15 1 0
BITMAP
F0
60
60
60
60
60
60
40
40
40
60
00
60
E0
60
ENDCHAR

STARTCHAR char34
ENCODING 34
SWIDTH 30 0
DWIDTH 7 0
BBX 5 5 1 10
BITMAP
D8
D8
D8
48
48
ENDCHAR

STARTCHAR char35
ENCODING 35
SWIDTH 8 0
DWIDTH 12 0
BBX 10 15 1 0
BITMAP
1980
1100
1100
1100
FFC0
3300
3300
3300
2200
FF80
FF80
2200
6600
6600
6600
ENDCHAR

STARTCHAR char36
ENCODING 36
SWIDTH 29 0
DWIDTH 17 0
BBX 15 19 0 -2
BITMAP
0100
0100
03C0
1FFA
3C9C
7188
6180
6180
3980
0FE0
0198
018C
018C
418C
711C
FFF8
1FE0
0180
0180
ENDCHAR

STARTCHAR char37
ENCODING 37
SWIDTH 20 0
DWIDTH 25 0
BBX 23 15 0 0
BITMAP
1E0080
230180
418300
C0C200
C0C400
C0C800
C0D9F8
41B31C
73260E
1E4606
008606
018606
03060E
02031C
0400F0
ENDCHAR

STARTCHAR char38
ENCODING 38
SWIDTH 38 0
DWIDTH 19 0
BBX 16 15 1 0
BITMAP
1F80
39C0
70E0
6060
6060
3CC2
7F86
71CE
C0DC
C078
8070
C070
C0FD
71DE
3F06
ENDCHAR

STARTCHAR char39
ENCODING 39
SWIDTH 17 0
DWIDTH 4 0
BBX 2 6 1 11
BITMAP
40
40
80
C0
C0
C0
ENDCHAR

STARTCHAR char40
ENCODING 40
SWIDTH 30 0
DWIDTH 7 0
BBX 5 15 1 0
BITMAP
08
18
30
60
40
C0
C0
C0
C0
C0
40
60
20
30
18
ENDCHAR

STARTCHAR char41
ENCODING 41
SWIDTH 30 0
DWIDTH 7 0
BBX 6 15 0 0
BITMAP
40
60
30
38
18
1C
0C
0C
0C
0C
18
18
30
60
40
ENDCHAR

STARTCHAR char42
ENCODING 42
SWIDTH 3 0
DWIDTH 11 0
BBX 10 9 0 6
BITMAP
1E00
0C00
4C80
7B80
BE40
1C00
3600
3300
1200
ENDCHAR

STARTCHAR char43
ENCODING 43
SWIDTH 20 0
DWIDTH 15 0
BBX 12 12 1 0
BITMAP
0600
0600
0600
0600
0600
FFF0
0600
0600
0600
0600
0600
0600
ENDCHAR

STARTCHAR char44
ENCODING 44
SWIDTH 17 0
DWIDTH 4 0
BBX 2 5 1 -2
BITMAP
C0
C0
C0
40
40
ENDCHAR

STARTCHAR char45
ENCODING 45
SWIDTH 30 0
DWIDTH 7 0
BBX 6 1 0 6
BITMAP
FC
ENDCHAR

STARTCHAR char46
ENCODING 46
SWIDTH 17 0
DWIDTH 4 0
BBX 2 3 1 0
BITMAP
C0
C0
C0
ENDCHAR

STARTCHAR char47
ENCODING 47
SWIDTH 25 0
DWIDTH 16 0
BBX 13 15 0 0
BITMAP
0008
0018
0030
0020
0060
00C0
0180
0300
0600
0C00
1800
1000
3000
6000
4000
ENDCHAR

STARTCHAR char48
ENCODING 48
SWIDTH 33 0
DWIDTH 18 0
BBX 15 16 0 0
BITMAP
0300
0FC0
1C70
3818
700C
600C
E006
C006
C006
C006
C006
6006
700C
381C
1C38
07E0
ENDCHAR

STARTCHAR char49
ENCODING 49
SWIDTH 33 0
DWIDTH 18 0
BBX 6 15 5 0
BITMAP
38
38
F8
F8
98
18
18
18
18
18
18
18
18
18
18
ENDCHAR

STARTCHAR char50
ENCODING 50
SWIDTH 33 0
DWIDTH 18 0
BBX 14 15 1 0
BITMAP
07C0
1CF0
3878
7018
2018
2038
0070
01E0
07C0
0E00
3800
7000
6004
FFF8
FE04
ENDCHAR

STARTCHAR char51
ENCODING 51
SWIDTH 33 0
DWIDTH 18 0
BBX 14 15 1 0
BITMAP
0FC0
1CF0
F078
6018
2018
0018
0470
07E0
0438
001C
400C
401C
F038
FC70
0FC0
ENDCHAR

STARTCHAR char52
ENCODING 52
SWIDTH 33 0
DWIDTH 18 0
BBX 14 15 1 0
BITMAP
00F0
00E0
01E0
0360
0760
0E60
0C60
1860
3060
7060
E07C
FFFC
8064
0060
00F0
ENDCHAR

STARTCHAR char53
ENCODING 53
SWIDTH 33 0
DWIDTH 18 0
BBX 14 16 1 0
BITMAP
4000
7FF8
6004
6004
6000
6000
E7E0
7C70
3038
101C
000C
400C
4018
F038
3870
0FC0
ENDCHAR

STARTCHAR char54
ENCODING 54
SWIDTH 33 0
DWIDTH 18 0
BBX 14 15 2 0
BITMAP
0FC0
18F4
3078
6010
4000
C000
CFC0
F8F0
E038
C018
C018
6038
7070
3CE0
0F80
ENDCHAR

STARTCHAR char55
ENCODING 55
SWIDTH 33 0
DWIDTH 18 0
BBX 13 15 1 0
BITMAP
FFF8
FE18
8030
0030
0060
00E0
00C0
01C0
0180
0380
0700
0700
0E00
0C00
1E00
ENDCHAR

STARTCHAR char56
ENCODING 56
SWIDTH 33 0
DWIDTH 18 0
BBX 14 15 1 0
BITMAP
1FE0
3870
7038
6018
601C
7018
3C78
3FF0
7038
E00C
E00C
E00C
7018
3830
0FC0
ENDCHAR

STARTCHAR char57
ENCODING 57
SWIDTH 33 0
DWIDTH 18 0
BBX 13 15 1 0
BITMAP
0F80
1CC0
3060
6030
6018
6018
6038
3078
0F88
0018
0018
2030
6060
78C0
1F80
ENDCHAR

STARTCHAR char58
ENCODING 58
SWIDTH 21 0
DWIDTH 5 0
BBX 2 10 2 0
BITMAP
C0
C0
C0
00
00
00
00
C0
C0
C0
ENDCHAR

STARTCHAR char59
ENCODING 59
SWIDTH 21 0
DWIDTH 5 0
BBX 2 12 2 -2
BITMAP
C0
C0
C0
00
00
00
00
40
C0
C0
40
40
ENDCHAR

STARTCHAR char60
ENCODING 60
SWIDTH 16 0
DWIDTH 14 0
BBX 11 11 1 0
BITMAP
0020
00E0
0380
1E00
7000
C000
E000
3C00
0700
01C0
0060
ENDCHAR

STARTCHAR char61
ENCODING 61
SWIDTH 20 0
DWIDTH 15 0
BBX 13 4 0 4
BITMAP
FFF8
0000
0000
FFF8
ENDCHAR

STARTCHAR char62
ENCODING 62
SWIDTH 16 0
DWIDTH 14 0
BBX 11 11 1 0
BITMAP
8000
E000
3800
0E00
0380
00E0
01C0
0700
1C00
7000
C000
ENDCHAR

STARTCHAR char63
ENCODING 63
SWIDTH 8 0
DWIDTH 12 0
BBX 9 15 1 0
BITMAP
1E00
7700
E380
4180
0180
0300
0200
0600
0400
0400
0C00
0000
0C00
0C00
0C00
ENDCHAR

STARTCHAR char64
ENCODING 64
SWIDTH 11 0
DWIDTH 23 0
BBX 15 15 3 0
BITMAP
07E0
1838
300C
6394
6676
CC66
D826
D826
D866
D844
4CC8
6770
3004
1818
07E0
ENDCHAR

STARTCHAR char65
ENCODING 65
SWIDTH 33 0
DWIDTH 18 0
BBX 16 15 0 0
BITMAP
03C0
03C0
03C0
06E0
0660
0C60
0C30
1C30
18F8
1FF8
300C
200C
600C
6006
F00F
ENDCHAR

STARTCHAR char66
ENCODING 66
SWIDTH 33 0
DWIDTH 18 0
BBX 14 16 1 -1
BITMAP
FFE0
E038
E018
600C
600C
600C
6018
7FF0
6018
600C
600C
600C
601C
6038
FFF0
8000
ENDCHAR

STARTCHAR char67
ENCODING 67
SWIDTH 38 0
DWIDTH 19 0
BBX 16 15 1 0
BITMAP
07F0
1E3D
381E
7004
6000
C000
C000
C000
C000
C000
E002
6002
700F
3C1C
0FF0
ENDCHAR

STARTCHAR char68
ENCODING 68
SWIDTH 38 0
DWIDTH 19 0
BBX 15 17 1 -1
BITMAP
8000
7FE0
6038
601C
600C
600E
6006
6006
6006
6006
6006
6006
600C
6018
6030
FFE0
8000
ENDCHAR

STARTCHAR char69
ENCODING 69
SWIDTH 29 0
DWIDTH 17 0
BBX 14 17 1 -1
BITMAP
8000
7FFC
6004
6004
6000
6000
6000
6020
7FC0
6020
6000
6000
6000
6000
6004
FFFC
8000
ENDCHAR

STARTCHAR char70
ENCODING 70
SWIDTH 29 0
DWIDTH 17 0
BBX 14 16 1 0
BITMAP
8000
7FFC
6004
6004
6000
6000
6000
6020
7FC0
6020
6000
6000
6000
6000
6000
E000
ENDCHAR

STARTCHAR char71
ENCODING 71
SWIDTH 38 0
DWIDTH 19 0
BBX 17 15 1 0
BITMAP
0FF000
1C7F00
381C00
700400
600000
C00000
C00000
C18100
C1FE00
C18600
C00600
600600
700F80
383E00
0FF000
ENDCHAR

STARTCHAR char72
ENCODING 72
SWIDTH 38 0
DWIDTH 19 0
BBX 15 15 1 0
BITMAP
E01E
600C
600C
600C
600C
600C
600C
7FFC
600C
600C
600C
600C
600C
600C
E00E
ENDCHAR

STARTCHAR char73
ENCODING 73
SWIDTH 25 0
DWIDTH 6 0
BBX 4 15 1 0
BITMAP
F0
60
60
60
60
60
60
60
60
60
60
60
60
60
F0
ENDCHAR

STARTCHAR char74
ENCODING 74
SWIDTH 16 0
DWIDTH 14 0
BBX 12 15 0 0
BITMAP
00F0
0060
0060
0060
0060
0060
0060
0060
0060
0060
0060
4060
40E0
F1C0
BF00
ENDCHAR

STARTCHAR char75
ENCODING 75
SWIDTH 29 0
DWIDTH 17 0
BBX 15 15 1 0
BITMAP
E03C
6038
60E0
61C0
6380
6700
6F00
7B00
7380
61C0
60E0
6070
6030
6018
E01E
ENDCHAR

STARTCHAR char76
ENCODING 76
SWIDTH 29 0
DWIDTH 17 0
BBX 14 16 1 -1
BITMAP
E000
6000
6000
6000
6000
6000
6000
6000
6000
6000
6000
6000
6000
6004
FFF8
8000
ENDCHAR

STARTCHAR char77
ENCODING 77
SWIDTH 3 0
DWIDTH 21 0
BBX 17 15 1 0
BITMAP
F00780
F00700
F00700
F80F00
D80B00
DC1B00
CC1300
CE3300
C66300
C76300
C34300
C3C300
C1C300
C18300
E08380
ENDCHAR

STARTCHAR char78
ENCODING 78
SWIDTH 38 0
DWIDTH 19 0
BBX 15 15 1 0
BITMAP
F00E
F006
F806
DC06
DE06
CF06
C786
C386
C1C6
C0E6
C076
C03E
C01E
C00E
E00E
ENDCHAR

STARTCHAR char79
ENCODING 79
SWIDTH 3 0
DWIDTH 21 0
BBX 17 15 1 0
BITMAP
07E000
1C3800
380E00
700700
E00300
C00380
C00180
C00180
C00180
C00180
E00300
600700
700E00
3C3C00
0FF000
ENDCHAR

STARTCHAR char80
ENCODING 80
SWIDTH 29 0
DWIDTH 17 0
BBX 14 16 1 0
BITMAP
8000
FFF0
E038
601C
600C
600C
600C
6018
7FF0
6000
6000
6000
6000
6000
6000
E000
ENDCHAR

STARTCHAR char81
ENCODING 81
SWIDTH 38 0
DWIDTH 19 0
BBX 15 17 1 -2
BITMAP
07C0
1C70
3818
600C
E00C
C006
C006
C006
C006
C006
6006
638E
30FC
1CF8
0FF0
001E
0008
ENDCHAR

STARTCHAR char82
ENCODING 82
SWIDTH 29 0
DWIDTH 17 0
BBX 15 15 1 0
BITMAP
7FE0
6078
603C
600C
600C
600C
6018
7FF0
60C0
60E0
6060
6030
6038
6018
E01E
ENDCHAR

STARTCHAR char83
ENCODING 83
SWIDTH 33 0
DWIDTH 18 0
BBX 16 15 0 0
BITMAP
0FF0
3E3D
380E
6004
6000
7000
3E00
0FF8
001C
0006
0006
2006
701C
BC78
07E0
ENDCHAR

STARTCHAR char84
ENCODING 84
SWIDTH 29 0
DWIDTH 17 0
BBX 15 15 0 0
BITMAP
FFFC
8302
8302
0300
0300
0300
0300
0300
0300
0300
0300
0300
0300
0300
0380
ENDCHAR

STARTCHAR char85
ENCODING 85
SWIDTH 33 0
DWIDTH 18 0
BBX 15 15 1 0
BITMAP
E01E
C00C
C00C
C00C
C00C
C00C
C00C
C00C
C00C
C00C
C00C
C00C
601C
7078
1FE0
ENDCHAR

STARTCHAR char86
ENCODING 86
SWIDTH 29 0
DWIDTH 17 0
BBX 16 15 0 0
BITMAP
E00E
600E
600C
700C
3018
3818
1830
1C30
0C70
0C60
0660
06C0
07C0
0380
03C0
ENDCHAR

STARTCHAR char87
ENCODING 87
SWIDTH 20 0
DWIDTH 25 0
BBX 22 15 0 0
BITMAP
E0781C
E07818
607818
607818
70DC30
30CC30
30CC30
38CC60
198E60
198660
1D86C0
0F07C0
0F03C0
0F03C0
0F03C0
ENDCHAR

STARTCHAR char88
ENCODING 88
SWIDTH 25 0
DWIDTH 16 0
BBX 14 15 0 0
BITMAP
F03C
7038
3870
1860
1CC0
0FC0
0780
0300
0780
0DC0
1CC0
18E0
3070
6038
F03C
ENDCHAR

STARTCHAR char89
ENCODING 89
SWIDTH 25 0
DWIDTH 16 0
BBX 14 15 0 0
BITMAP
E01C
6018
7038
3830
1860
0CC0
0EC0
0780
0300
0300
0300
0300
0300
0300
0780
ENDCHAR

STARTCHAR char90
ENCODING 90
SWIDTH 29 0
DWIDTH 17 0
BBX 15 17 0 -1
BITMAP
0004
FFF8
8038
8070
0070
00E0
00C0
01C0
0380
0700
0F00
0E00
1C00
3800
79FC
FFFE
8000
ENDCHAR

STARTCHAR char91
ENCODING 91
SWIDTH 34 0
DWIDTH 8 0
BBX 6 16 1 -1
BITMAP
78
64
60
60
60
60
60
60
60
60
60
60
60
64
78
04
ENDCHAR

STARTCHAR char92
ENCODING 92
SWIDTH 25 0
DWIDTH 6 0
BBX 6 15 0 0
BITMAP
80
C0
40
40
60
20
20
30
10
10
18
08
08
0C
04
ENDCHAR

STARTCHAR char93
ENCODING 93
SWIDTH 34 0
DWIDTH 8 0
BBX 5 16 1 -1
BITMAP
F0
B0
30
30
30
30
30
30
30
30
30
30
30
B0
F0
80
ENDCHAR

STARTCHAR char94
ENCODING 94
SWIDTH 0 0
DWIDTH 0 0
BBX 6 3 -3 16
BITMAP
30
58
4C
ENDCHAR

STARTCHAR char95
ENCODING 95
SWIDTH 8 0
DWIDTH 12 0
BBX 12 1 0 -3
BITMAP
FFF0
ENDCHAR

STARTCHAR char96
ENCODING 96
SWIDTH 0 0
DWIDTH 0 0
BBX 3 3 -2 13
BITMAP
C0
40
40
ENDCHAR

STARTCHAR char97
ENCODING 97
SWIDTH 20 0
DWIDTH 15 0
BBX 13 12 0 0
BITMAP
0780
0700
0D80
0980
18C0
18C0
30C0
3FE0
6060
6030
C030
E038
ENDCHAR

STARTCHAR char98
ENCODING 98
SWIDTH 20 0
DWIDTH 15 0
BBX 12 12 1 0
BITMAP
FFC0
C060
C030
C030
C060
FFC0
C060
C030
C030
C030
C060
FFC0
ENDCHAR

STARTCHAR char99
ENCODING 99
SWIDTH 25 0
DWIDTH 16 0
BBX 14 12 0 0
BITMAP
0FE0
381C
7008
6000
C000
C000
C000
C000
6004
300C
1C38
0FE0
ENDCHAR

STARTCHAR char100
ENCODING 100
SWIDTH 25 0
DWIDTH 16 0
BBX 13 12 1 0
BITMAP
FFC0
C060
C030
C018
C018
C018
C018
C018
C030
C070
C0E0
FF80
ENDCHAR

STARTCHAR char101
ENCODING 101
SWIDTH 20 0
DWIDTH 15 0
BBX 12 13 1 0
BITMAP
0020
FFE0
C010
C000
C000
C080
FF80
C080
C000
C000
C000
C010
FFE0
ENDCHAR

STARTCHAR char102
ENCODING 102
SWIDTH 16 0
DWIDTH 14 0
BBX 12 13 1 0
BITMAP
0020
FFE0
C010
C000
C000
C080
FF00
C080
C000
C000
C000
C000
E000
ENDCHAR

STARTCHAR char103
ENCODING 103
SWIDTH 29 0
DWIDTH 17 0
BBX 15 12 0 0
BITMAP
0FE0
383C
7008
6000
C000
C082
C0FC
C08C
600C
300C
1C3C
07E0
ENDCHAR

STARTCHAR char104
ENCODING 104
SWIDTH 25 0
DWIDTH 16 0
BBX 12 12 1 0
BITMAP
C030
C030
C030
C030
C0F0
FFF0
C030
C030
C030
C030
C030
E070
ENDCHAR

STARTCHAR char105
ENCODING 105
SWIDTH 25 0
DWIDTH 6 0
BBX 4 12 1 0
BITMAP
70
60
60
60
60
60
60
60
60
60
60
F0
ENDCHAR

STARTCHAR char106
ENCODING 106
SWIDTH 8 0
DWIDTH 12 0
BBX 11 12 0 0
BITMAP
01E0
00C0
00C0
00C0
00C0
00C0
00C0
00C0
00C0
41C0
7180
3F00
ENDCHAR

STARTCHAR char107
ENCODING 107
SWIDTH 20 0
DWIDTH 15 0
BBX 13 12 1 0
BITMAP
E0F8
C1C0
C300
C600
DC00
FE00
E700
C380
C180
C0C0
C060
F078
ENDCHAR

STARTCHAR char108
ENCODING 108
SWIDTH 16 0
DWIDTH 14 0
BBX 12 12 1 0
BITMAP
E000
C000
C000
C000
C000
C000
C000
C000
C000
C000
C010
FFE0
ENDCHAR

STARTCHAR char109
ENCODING 109
SWIDTH 33 0
DWIDTH 18 0
BBX 15 12 1 0
BITMAP
F01E
F03C
F03C
D86C
D86C
CCCC
CCCC
C78C
C78C
C30C
C30C
E11C
ENDCHAR

STARTCHAR char110
ENCODING 110
SWIDTH 29 0
DWIDTH 17 0
BBX 13 12 1 0
BITMAP
F038
F030
D830
DC30
CE30
C730
C330
C1B0
C0F0
C070
C070
C038
ENDCHAR

STARTCHAR char111
ENCODING 111
SWIDTH 29 0
DWIDTH 17 0
BBX 15 12 0 0
BITMAP
0FF0
3838
700C
600E
C006
C006
C006
C006
600C
301C
1C38
07E0
ENDCHAR

STARTCHAR char112
ENCODING 112
SWIDTH 20 0
DWIDTH 15 0
BBX 12 12 1 0
BITMAP
FFC0
C060
C030
C030
C070
FFC0
C000
C000
C000
C000
C000
E000
ENDCHAR

STARTCHAR char113
ENCODING 113
SWIDTH 29 0
DWIDTH 17 0
BBX 14 14 0 -2
BITMAP
0FE0
3870
7018
600C
C00C
C00C
C00C
C00C
6018
3798
18F0
0FE0
001C
0008
ENDCHAR

STARTCHAR char114
ENCODING 114
SWIDTH 20 0
DWIDTH 15 0
BBX 13 12 1 0
BITMAP
FFC0
C060
C030
C030
C070
FFC0
C100
C180
C0C0
C0C0
C060
E078
ENDCHAR

STARTCHAR char115
ENCODING 115
SWIDTH 20 0
DWIDTH 15 0
BBX 13 12 0 0
BITMAP
1FC0
3070
6020
6000
7000
3FE0
01F0
0030
2030
6030
F0E0
1FC0
ENDCHAR

STARTCHAR char116
ENCODING 116
SWIDTH 16 0
DWIDTH 14 0
BBX 14 13 -1 0
BITMAP
C004
FFF8
8304
0300
0300
0300
0300
0300
0300
0300
0300
0300
0300
ENDCHAR

STARTCHAR char117
ENCODING 117
SWIDTH 29 0
DWIDTH 17 0
BBX 13 12 1 0
BITMAP
E038
C030
C030
C030
C030
C030
C030
C030
C030
E030
7060
1F80
ENDCHAR

STARTCHAR char118
ENCODING 118
SWIDTH 20 0
DWIDTH 15 0
BBX 14 12 0 0
BITMAP
E03C
6030
6020
3060
3060
18C0
18C0
0980
0D80
0500
0700
0780
ENDCHAR

STARTCHAR char119
ENCODING 119
SWIDTH 3 0
DWIDTH 21 0
BBX 19 12 0 0
BITMAP
E1E0E0
60E0C0
61E080
61A180
213180
333100
333300
121B00
1E1A00
1E1E00
0C0E00
1E1E00
ENDCHAR

STARTCHAR char120
ENCODING 120
SWIDTH 12 0
DWIDTH 13 0
BBX 12 12 0 0
BITMAP
F0F0
30C0
3980
1980
0F00
0600
0E00
1B00
1980
30C0
60C0
F070
ENDCHAR

STARTCHAR char121
ENCODING 121
SWIDTH 16 0
DWIDTH 14 0
BBX 13 12 0 0
BITMAP
F078
6060
30C0
1980
1D80
0F00
0600
0600
0600
0600
0600
0600
ENDCHAR

STARTCHAR char122
ENCODING 122
SWIDTH 16 0
DWIDTH 14 0
BBX 12 12 0 0
BITMAP
FFE0
80C0
00C0
0180
0300
0700
0E00
1C00
3800
7800
7010
7FF0
ENDCHAR

STARTCHAR char123
ENCODING 123
SWIDTH 34 0
DWIDTH 8 0
BBX 5 19 1 -4
BITMAP
38
70
60
60
20
20
20
60
40
80
60
60
60
60
60
60
60
70
38
ENDCHAR

STARTCHAR char124
ENCODING 124
SWIDTH 25 0
DWIDTH 6 0
BBX 2 15 2 0
BITMAP
C0
C0
C0
C0
C0
C0
C0
C0
C0
C0
C0
C0
C0
C0
C0
ENDCHAR

STARTCHAR char125
ENCODING 125
SWIDTH 34 0
DWIDTH 8 0
BBX 5 19 1 -4
BITMAP
C0
20
20
20
30
30
30
30
10
08
10
30
30
30
30
30
30
70
E0
ENDCHAR

STARTCHAR char126
ENCODING 126
SWIDTH 0 0
DWIDTH 0 0
BBX 11 3 -5 16
BITMAP
0080
78E0
CF00
ENDCHAR

STARTCHAR char128
ENCODING 128
SWIDTH 38 0
DWIDTH 19 0
BBX 20 15 -1 0
BITMAP
007F00
01C7F0
0701C0
0E0040
0C0000
7FFF00
180000
180000
7FFE00
180000
1C0020
0E0060
0700F0
03C7C0
00FE00
ENDCHAR

STARTCHAR char130
ENCODING 130
SWIDTH 17 0
DWIDTH 4 0
BBX 2 5 1 -2
BITMAP
C0
C0
C0
40
40
ENDCHAR

STARTCHAR char131
ENCODING 131
SWIDTH 0 0
DWIDTH 0 0
BBX 6 3 -3 16
BITMAP
30
58
4C
ENDCHAR

STARTCHAR char132
ENCODING 132
SWIDTH 34 0
DWIDTH 8 0
BBX 5 6 1 -3
BITMAP
48
D8
D8
48
48
48
ENDCHAR

STARTCHAR char133
ENCODING 133
SWIDTH 7 0
DWIDTH 22 0
BBX 16 1 2 0
BITMAP
C183
ENDCHAR

STARTCHAR char134
ENCODING 134
SWIDTH 12 0
DWIDTH 13 0
BBX 12 19 0 -4
BITMAP
0E00
0C00
0C00
0C00
8410
FFE0
8410
0C00
0C00
0C00
0C00
0C00
0C00
0C00
0C00
0E00
0E00
0E00
0E00
ENDCHAR

STARTCHAR char136
ENCODING 136
SWIDTH 0 0
DWIDTH 0 0
BBX 8 5 -4 11
BITMAP
18
2C
26
47
C7
ENDCHAR

STARTCHAR char138
ENCODING 138
SWIDTH 3 0
DWIDTH 21 0
BBX 0 0 0 0
BITMAP
ENDCHAR

STARTCHAR char139
ENCODING 139
SWIDTH 30 0
DWIDTH 7 0
BBX 3 7 2 2
BITMAP
20
60
C0
80
E0
60
20
ENDCHAR

STARTCHAR char140
ENCODING 140
SWIDTH 20 0
DWIDTH 25 0
BBX 23 15 0 0
BITMAP
03FFFE
0E3FFE
381806
701800
601800
E01800
C01820
C01FE0
C01820
E01800
601800
701800
381800
1E3FFC
07FFFC
ENDCHAR

STARTCHAR char141
ENCODING 141
SWIDTH 3 0
DWIDTH 21 0
BBX 0 0 0 0
BITMAP
ENDCHAR

STARTCHAR char145
ENCODING 145
SWIDTH 17 0
DWIDTH 4 0
BBX 2 6 1 11
BITMAP
40
40
80
C0
C0
C0
ENDCHAR

STARTCHAR char146
ENCODING 146
SWIDTH 17 0
DWIDTH 4 0
BBX 2 5 1 10
BITMAP
C0
C0
C0
40
40
ENDCHAR

STARTCHAR char147
ENCODING 147
SWIDTH 34 0
DWIDTH 8 0
BBX 5 6 1 9
BITMAP
90
90
90
D8
D8
58
ENDCHAR

STARTCHAR char148
ENCODING 148
SWIDTH 34 0
DWIDTH 8 0
BBX 5 5 1 10
BITMAP
D8
D8
D8
48
48
ENDCHAR

STARTCHAR char149
ENCODING 149
SWIDTH 30 0
DWIDTH 7 0
BBX 5 5 1 5
BITMAP
70
F8
F8
F8
70
ENDCHAR

STARTCHAR char150
ENCODING 150
SWIDTH 33 0
DWIDTH 18 0
BBX 15 1 0 6
BITMAP
FFFE
ENDCHAR

STARTCHAR char151
ENCODING 151
SWIDTH 20 0
DWIDTH 15 0
BBX 13 1 0 6
BITMAP
FFF8
ENDCHAR

STARTCHAR char152
ENCODING 152
SWIDTH 0 0
DWIDTH 0 0
BBX 8 3 -4 13
BITMAP
02
73
8C
ENDCHAR

STARTCHAR char153
ENCODING 153
SWIDTH 42 0
DWIDTH 20 0
BBX 17 8 0 6
BITMAP
FFC180
9B4300
9B6500
186500
187700
185700
185B00
38CB80
ENDCHAR

STARTCHAR char155
ENCODING 155
SWIDTH 30 0
DWIDTH 7 0
BBX 3 7 2 2
BITMAP
80
C0
60
20
E0
80
80
ENDCHAR

STARTCHAR char156
ENCODING 156
SWIDTH 3 0
DWIDTH 21 0
BBX 19 13 0 0
BITMAP
000040
0FFFC0
38C020
70C000
E0C000
C0C100
C0FE00
C0C100
C0C000
60C000
30C000
18FFC0
0FFFC0
ENDCHAR

STARTCHAR char157
ENCODING 157
SWIDTH 3 0
DWIDTH 21 0
BBX 0 0 0 0
BITMAP
ENDCHAR

STARTCHAR char159
ENCODING 159
SWIDTH 25 0
DWIDTH 16 0
BBX 14 19 0 0
BITMAP
18C0
18C0
18C0
0000
E01C
6018
7038
3830
1860
0CC0
0EC0
0780
0300
0300
0300
0300
0300
0300
0780
ENDCHAR

STARTCHAR char160
ENCODING 160
SWIDTH 43 0
DWIDTH 10 0
BBX 0 0 0 0
BITMAP
ENDCHAR

STARTCHAR char161
ENCODING 161
SWIDTH 21 0
DWIDTH 5 0
BBX 4 15 0 0
BITMAP
60
60
60
00
00
40
40
40
40
40
40
60
60
60
F0
ENDCHAR

STARTCHAR char162
ENCODING 162
SWIDTH 25 0
DWIDTH 16 0
BBX 14 15 0 -1
BITMAP
0180
0180
0FF0
1D9C
3188
6180
C180
C180
C180
C180
6104
310C
1D78
0FE0
0180
ENDCHAR

STARTCHAR char163
ENCODING 163
SWIDTH 33 0
DWIDTH 18 0
BBX 15 15 1 0
BITMAP
07E0
0E3C
181E
3004
3004
3000
B040
FFC0
B040
3000
3000
3000
3000
BFFC
FFFC
ENDCHAR

STARTCHAR char164
ENCODING 164
SWIDTH 0 0
DWIDTH 0 0
BBX 4 4 -1 15
BITMAP
70
60
40
C0
ENDCHAR

STARTCHAR char165
ENCODING 165
SWIDTH 0 0
DWIDTH 0 0
BBX 8 4 -4 15
BITMAP
62
64
3C
18
ENDCHAR

STARTCHAR char166
ENCODING 166
SWIDTH 3 0
DWIDTH 21 0
BBX 0 0 0 0
BITMAP
ENDCHAR

STARTCHAR char167
ENCODING 167
SWIDTH 8 0
DWIDTH 12 0
BBX 10 19 0 -4
BITMAP
1E00
37C0
7380
6100
7000
3800
7E00
6700
4180
40C0
60C0
78C0
1F80
0700
0300
4180
4180
F180
1E00
ENDCHAR

STARTCHAR char168
ENCODING 168
SWIDTH 0 0
DWIDTH 0 0
BBX 6 2 -3 14
BITMAP
04
CC
ENDCHAR

STARTCHAR char169
ENCODING 169
SWIDTH 33 0
DWIDTH 18 0
BBX 15 14 0 0
BITMAP
03C0
0C30
1008
23EC
6664
4426
CC06
CC06
CC06
4C06
6644
2388
1818
07E0
ENDCHAR

STARTCHAR char170
ENCODING 170
SWIDTH 0 0
DWIDTH 0 0
BBX 8 3 -4 16
BITMAP
C3
C3
C3
ENDCHAR

STARTCHAR char171
ENCODING 171
SWIDTH 43 0
DWIDTH 10 0
BBX 7 8 1 2
BITMAP
36
24
6C
48
48
6C
24
36
ENDCHAR

STARTCHAR char172
ENCODING 172
SWIDTH 25 0
DWIDTH 16 0
BBX 14 6 0 0
BITMAP
FFFC
000C
000C
000C
000C
000C
ENDCHAR

STARTCHAR char174
ENCODING 174
SWIDTH 33 0
DWIDTH 18 0
BBX 15 13 0 0
BITMAP
07E0
1818
27CC
6664
4666
C466
C786
C6C6
46E6
6774
200C
1818
07E0
ENDCHAR

STARTCHAR char176
ENCODING 176
SWIDTH 43 0
DWIDTH 10 0
BBX 7 6 -1 8
BITMAP
38
44
C6
C6
46
3C
ENDCHAR

STARTCHAR char177
ENCODING 177
SWIDTH 8 0
DWIDTH 12 0
BBX 11 13 0 0
BITMAP
0C00
0C00
0C00
0C00
0C00
FFE0
0C00
0C00
0C00
0C00
0C00
0000
FFE0
ENDCHAR

STARTCHAR char179
ENCODING 179
SWIDTH 3 0
DWIDTH 21 0
BBX 0 0 0 0
BITMAP
ENDCHAR

STARTCHAR char180
ENCODING 180
SWIDTH 0 0
DWIDTH 0 0
BBX 4 3 -1 13
BITMAP
60
40
40
ENDCHAR

STARTCHAR char182
ENCODING 182
SWIDTH 20 0
DWIDTH 15 0
BBX 9 18 2 -3
BITMAP
3F80
7180
F180
F180
F180
F180
7180
7180
1180
1180
1180
1180
1180
1180
1180
1180
1180
1180
ENDCHAR

STARTCHAR char183
ENCODING 183
SWIDTH 17 0
DWIDTH 4 0
BBX 2 3 1 5
BITMAP
C0
C0
C0
ENDCHAR

STARTCHAR char184
ENCODING 184
SWIDTH 0 0
DWIDTH 0 0
BBX 5 4 -2 -4
BITMAP
70
58
18
F0
ENDCHAR

STARTCHAR char185
ENCODING 185
SWIDTH 3 0
DWIDTH 21 0
BBX 0 0 0 0
BITMAP
ENDCHAR

STARTCHAR char186
ENCODING 186
SWIDTH 0 0
DWIDTH 0 0
BBX 11 3 -5 16
BITMAP
0080
78E0
CF00
ENDCHAR

STARTCHAR char187
ENCODING 187
SWIDTH 43 0
DWIDTH 10 0
BBX 7 8 1 2
BITMAP
D8
48
6C
24
24
6C
48
D8
ENDCHAR

STARTCHAR char189
ENCODING 189
SWIDTH 3 0
DWIDTH 21 0
BBX 0 0 0 0
BITMAP
ENDCHAR

STARTCHAR char191
ENCODING 191
SWIDTH 8 0
DWIDTH 12 0
BBX 8 15 1 0
BITMAP
18
18
18
00
00
10
10
30
20
60
C0
C2
C3
66
3C
ENDCHAR

STARTCHAR char192
ENCODING 192
SWIDTH 33 0
DWIDTH 18 0
BBX 16 19 0 0
BITMAP
0600
0300
0300
0100
03C0
03C0
03C0
06E0
0660
0C60
0C30
1C30
18F8
1FF8
300C
200C
600C
6006
F00F
ENDCHAR

STARTCHAR char193
ENCODING 193
SWIDTH 33 0
DWIDTH 18 0
BBX 16 19 0 0
BITMAP
00C0
0180
0180
0100
03C0
03C0
03C0
06E0
0660
0C60
0C30
1C30
18F8
1FF8
300C
200C
600C
6006
F00F
ENDCHAR

STARTCHAR char194
ENCODING 194
SWIDTH 33 0
DWIDTH 18 0
BBX 16 19 0 0
BITMAP
0180
0280
0440
0000
03C0
03C0
03C0
06E0
0660
0C60
0C30
1C30
18F8
1FF8
300C
200C
600C
6006
F00F
ENDCHAR

STARTCHAR char195
ENCODING 195
SWIDTH 33 0
DWIDTH 18 0
BBX 16 19 0 0
BITMAP
0020
0E18
31E0
0000
03C0
03C0
03C0
06E0
0660
0C60
0C30
1C30
18F8
1FF8
300C
200C
600C
6006
F00F
ENDCHAR

STARTCHAR char196
ENCODING 196
SWIDTH 33 0
DWIDTH 18 0
BBX 17 16 0 0
BITMAP
300C00
33CC00
33CC00
03C000
06E000
066000
0C6000
0C3000
1C3000
181800
1FF800
3E0C00
200C00
600600
400600
E00780
ENDCHAR

STARTCHAR char197
ENCODING 197
SWIDTH 33 0
DWIDTH 18 0
BBX 16 19 0 0
BITMAP
03C0
0660
0660
03C0
07E0
03C0
07E0
06E0
0660
0C60
0C30
1C30
18F8
1FF8
300C
300C
600E
E006
E00F
ENDCHAR

STARTCHAR char198
ENCODING 198
SWIDTH 20 0
DWIDTH 25 0
BBX 23 16 -1 -1
BITMAP
00FFFC
00FFFC
019802
019800
031800
031800
061820
0E1FE0
0C1810
1FF800
183800
303800
303800
603802
E03FFC
802000
ENDCHAR

STARTCHAR char199
ENCODING 199
SWIDTH 38 0
DWIDTH 19 0
BBX 16 18 1 -3
BITMAP
07F0
1E3D
381E
7004
6000
C000
C000
C000
C000
C000
E002
6002
380F
1FFC
07E0
03C0
02C0
00C0
ENDCHAR

STARTCHAR char200
ENCODING 200
SWIDTH 29 0
DWIDTH 17 0
BBX 14 20 1 -1
BITMAP
1C00
0C00
0600
8200
7FF8
6004
6004
6000
6000
6000
6020
7FC0
6020
6000
6000
6000
6000
6004
FFFC
8000
ENDCHAR

STARTCHAR char201
ENCODING 201
SWIDTH 29 0
DWIDTH 17 0
BBX 14 20 1 -1
BITMAP
0380
0300
0300
8600
7FFC
6004
6004
6000
6000
6000
6020
7FC0
6020
6000
6000
6000
6000
6004
FFFC
8000
ENDCHAR

STARTCHAR char202
ENCODING 202
SWIDTH 29 0
DWIDTH 17 0
BBX 14 20 1 -1
BITMAP
0600
0700
0980
8000
7FFC
6004
6004
6000
6000
6000
6020
7FC0
6020
6000
6000
6000
6000
6004
FFFC
8000
ENDCHAR

STARTCHAR char203
ENCODING 203
SWIDTH 29 0
DWIDTH 17 0
BBX 14 20 1 -1
BITMAP
18C0
18C0
10C0
8000
7FFC
6004
6004
6000
6000
6000
6020
7FC0
6020
6000
6000
6000
6000
6004
FFFC
8000
ENDCHAR

STARTCHAR char204
ENCODING 204
SWIDTH 25 0
DWIDTH 6 0
BBX 6 19 -1 0
BITMAP
60
30
30
10
3C
18
18
18
18
18
18
18
18
18
18
18
18
18
3C
ENDCHAR

STARTCHAR char205
ENCODING 205
SWIDTH 25 0
DWIDTH 6 0
BBX 5 19 1 0
BITMAP
30
30
60
40
F0
60
60
60
60
60
60
60
60
60
60
60
60
60
F0
ENDCHAR

STARTCHAR char206
ENCODING 206
SWIDTH 25 0
DWIDTH 6 0
BBX 6 19 -1 0
BITMAP
30
58
88
00
78
30
30
30
30
30
30
30
30
30
30
30
30
30
78
ENDCHAR

STARTCHAR char207
ENCODING 207
SWIDTH 25 0
DWIDTH 6 0
BBX 7 19 -1 0
BITMAP
C6
C6
C6
00
1C
18
18
18
18
18
18
18
18
18
18
18
18
18
1C
ENDCHAR

STARTCHAR char209
ENCODING 209
SWIDTH 38 0
DWIDTH 19 0
BBX 15 19 1 0
BITMAP
0020
0E38
31E0
0000
F00E
F006
F806
DC06
DE06
CF06
C786
C386
C1C6
C0E6
C076
C03E
C01E
C00E
E00E
ENDCHAR

STARTCHAR char210
ENCODING 210
SWIDTH 3 0
DWIDTH 21 0
BBX 17 19 1 0
BITMAP
070000
030000
010000
018000
07E000
1C3800
380E00
700700
E00300
C00380
C00180
C00180
C00180
C00180
E00300
600700
700E00
3C3C00
0FF000
ENDCHAR

STARTCHAR char211
ENCODING 211
SWIDTH 3 0
DWIDTH 21 0
BBX 17 19 1 0
BITMAP
00E000
00C000
018000
010000
07E000
1C3800
381E00
700700
E00300
C00380
C00180
C00180
C00180
C00180
E00300
600700
700E00
3C3C00
0FF000
ENDCHAR

STARTCHAR char212
ENCODING 212
SWIDTH 3 0
DWIDTH 21 0
BBX 17 19 1 0
BITMAP
018000
02C000
064000
000000
07E000
1C3800
381E00
700700
E00300
C00380
C00180
C00180
C00180
C00180
E00300
600700
700E00
3C3C00
0FF000
ENDCHAR

STARTCHAR char213
ENCODING 213
SWIDTH 3 0
DWIDTH 21 0
BBX 17 19 1 0
BITMAP
001000
0F1800
11E000
000000
07E000
1C3800
380E00
700700
E00300
C00380
C00180
C00180
C00180
C00180
E00300
600700
700E00
3C3C00
0FF000
ENDCHAR

STARTCHAR char214
ENCODING 214
SWIDTH 3 0
DWIDTH 21 0
BBX 17 16 1 0
BITMAP
400100
67E100
1C3800
380E00
700700
600300
C00380
C00180
C00180
C00180
C00180
E00300
600700
700E00
3C3C00
0FF000
ENDCHAR

STARTCHAR char216
ENCODING 216
SWIDTH 3 0
DWIDTH 21 0
BBX 18 16 0 0
BITMAP
000040
03F080
0E1F00
1C0F00
300F80
701980
6031C0
6060C0
60C0C0
6180C0
6300C0
240180
380380
180700
2E1E00
43F800
ENDCHAR

STARTCHAR char217
ENCODING 217
SWIDTH 33 0
DWIDTH 18 0
BBX 15 19 1 0
BITMAP
0E00
0600
0200
0300
E01E
C00C
C00C
C00C
C00C
C00C
C00C
C00C
C00C
C00C
C00C
C00C
601C
7078
1FE0
ENDCHAR

STARTCHAR char218
ENCODING 218
SWIDTH 33 0
DWIDTH 18 0
BBX 15 19 1 0
BITMAP
01C0
0180
0100
0300
E01E
C00C
C00C
C00C
C00C
C00C
C00C
C00C
C00C
C00C
C00C
C00C
601C
7078
1FE0
ENDCHAR

STARTCHAR char219
ENCODING 219
SWIDTH 33 0
DWIDTH 18 0
BBX 15 19 1 0
BITMAP
0300
0580
0CC0
0000
E01E
C00C
C00C
C00C
C00C
C00C
C00C
C00C
C00C
C00C
C00C
C00C
601C
7078
1FE0
ENDCHAR

STARTCHAR char220
ENCODING 220
SWIDTH 33 0
DWIDTH 18 0
BBX 15 16 1 0
BITMAP
0CC0
ECDE
CCCC
C00C
C00C
C00C
C00C
C00C
C00C
C00C
C00C
C00C
E00C
7018
7878
1FE0
ENDCHAR

STARTCHAR char222
ENCODING 222
SWIDTH 3 0
DWIDTH 21 0
BBX 0 0 0 0
BITMAP
ENDCHAR

STARTCHAR char223
ENCODING 223
SWIDTH 33 0
DWIDTH 28 0
BBX 27 12 0 0
BITMAP
1FC07F00
3070C1C0
60218080
60018000
7001C000
3FE0FF80
01F007C0
003000C0
203080C0
603180C0
F0E3C380
1FC07F00
ENDCHAR

STARTCHAR char224
ENCODING 224
SWIDTH 20 0
DWIDTH 15 0
BBX 13 16 0 0
BITMAP
0C00
0400
0600
0000
0700
0700
0D80
0980
18C0
18C0
30C0
3FE0
6060
6030
C030
E038
ENDCHAR

STARTCHAR char225
ENCODING 225
SWIDTH 20 0
DWIDTH 15 0
BBX 13 16 0 0
BITMAP
0300
0200
0200
0000
0700
0700
0D80
0980
18C0
18C0
30C0
3FE0
6060
6030
C030
E038
ENDCHAR

STARTCHAR char226
ENCODING 226
SWIDTH 20 0
DWIDTH 15 0
BBX 13 17 0 0
BITMAP
0600
0F00
0980
10C0
0000
0700
0700
0D80
0980
18C0
18C0
30C0
3FE0
6060
6030
C030
E038
ENDCHAR

STARTCHAR char227
ENCODING 227
SWIDTH 20 0
DWIDTH 15 0
BBX 13 16 0 0
BITMAP
0080
1CC0
1300
0000
0700
0700
0D80
0980
18C0
18C0
30C0
3FE0
6060
6030
C030
E038
ENDCHAR

STARTCHAR char228
ENCODING 228
SWIDTH 20 0
DWIDTH 15 0
BBX 13 15 0 0
BITMAP
18C0
0800
0000
0700
0780
0D80
0980
18C0
1840
3060
3FE0
6020
4030
C030
E038
ENDCHAR

STARTCHAR char229
ENCODING 229
SWIDTH 20 0
DWIDTH 15 0
BBX 13 16 0 0
BITMAP
0700
0D80
0C80
0700
0780
0F80
0D80
1980
1880
10C0
3040
3FE0
6060
6030
C030
E038
ENDCHAR

STARTCHAR char230
ENCODING 230
SWIDTH 42 0
DWIDTH 20 0
BBX 19 13 -1 0
BITMAP
001020
03FFC0
02C020
06C000
04C000
0CC300
08FF00
18C100
1FC000
30C000
30C000
20C020
60FFC0
ENDCHAR

STARTCHAR char231
ENCODING 231
SWIDTH 25 0
DWIDTH 16 0
BBX 14 16 0 -4
BITMAP
0FE0
383C
7008
6000
C000
C000
C000
C000
6008
701C
3FF8
0F80
0380
0380
0180
0700
ENDCHAR

STARTCHAR char232
ENCODING 232
SWIDTH 20 0
DWIDTH 15 0
BBX 12 16 1 0
BITMAP
1800
0800
0400
0020
FFE0
C010
C000
C000
C080
FF80
C080
C000
C000
C000
C010
FFE0
ENDCHAR

STARTCHAR char233
ENCODING 233
SWIDTH 20 0
DWIDTH 15 0
BBX 12 16 1 0
BITMAP
0600
0400
0400
0020
FFE0
C010
C000
C000
C080
FF80
C080
C000
C000
C000
C010
FFE0
ENDCHAR

STARTCHAR char234
ENCODING 234
SWIDTH 20 0
DWIDTH 15 0
BBX 12 17 1 0
BITMAP
0E00
0E00
1200
3300
0020
FFE0
C010
C000
C000
C080
FF80
C080
C000
C000
C000
C010
FFE0
ENDCHAR

STARTCHAR char235
ENCODING 235
SWIDTH 20 0
DWIDTH 15 0
BBX 12 16 1 0
BITMAP
0100
3300
0000
0020
FFE0
C010
C000
C000
C080
FF80
C080
C000
C000
C000
C010
FFE0
ENDCHAR

STARTCHAR char236
ENCODING 236
SWIDTH 25 0
DWIDTH 6 0
BBX 4 16 0 0
BITMAP
C0
40
40
00
60
60
60
60
60
60
60
60
60
60
60
70
ENDCHAR

STARTCHAR char237
ENCODING 237
SWIDTH 25 0
DWIDTH 6 0
BBX 5 16 1 0
BITMAP
30
20
20
00
60
60
60
60
60
60
60
60
60
60
60
F0
ENDCHAR

STARTCHAR char238
ENCODING 238
SWIDTH 25 0
DWIDTH 6 0
BBX 8 17 -1 0
BITMAP
1C
1C
24
66
E7
18
18
18
18
18
18
18
18
18
18
18
3C
ENDCHAR

STARTCHAR char239
ENCODING 239
SWIDTH 25 0
DWIDTH 6 0
BBX 7 15 -1 0
BITMAP
C6
40
00
30
30
30
30
30
30
30
30
30
30
30
38
ENDCHAR

STARTCHAR char241
ENCODING 241
SWIDTH 29 0
DWIDTH 17 0
BBX 13 16 1 0
BITMAP
0040
1CC0
1300
0000
E030
F030
D830
DC30
CE30
C730
C330
C1B0
C0F0
C070
C070
C038
ENDCHAR

STARTCHAR char242
ENCODING 242
SWIDTH 29 0
DWIDTH 17 0
BBX 15 16 0 0
BITMAP
0600
0200
0100
0000
0FF0
3838
700C
600E
C006
C006
C006
C006
600C
301C
1C38
07E0
ENDCHAR

STARTCHAR char243
ENCODING 243
SWIDTH 29 0
DWIDTH 17 0
BBX 15 16 0 0
BITMAP
0080
0180
0100
0000
0FF0
3838
700C
600E
C006
C006
C006
C006
600C
301C
1C38
07E0
ENDCHAR

STARTCHAR char244
ENCODING 244
SWIDTH 29 0
DWIDTH 17 0
BBX 15 16 0 0
BITMAP
0380
0380
04C0
0C60
0FF0
3838
700C
600E
C006
C006
C006
C006
600C
301C
1C38
07E0
ENDCHAR

STARTCHAR char245
ENCODING 245
SWIDTH 29 0
DWIDTH 17 0
BBX 15 16 0 0
BITMAP
0020
0F30
08C0
0000
0FF0
3838
700C
600E
C006
C006
C006
C006
600C
301C
1C38
07E0
ENDCHAR

STARTCHAR char246
ENCODING 246
SWIDTH 29 0
DWIDTH 17 0
BBX 15 15 0 0
BITMAP
0660
0200
0000
0FE0
3838
700C
600E
C006
C006
C006
C006
600C
301C
1C38
0FE0
ENDCHAR

STARTCHAR char247
ENCODING 247
SWIDTH 8 0
DWIDTH 12 0
BBX 11 6 0 2
BITMAP
0C00
0000
FFE0
0000
0000
0C00
ENDCHAR

STARTCHAR char248
ENCODING 248
SWIDTH 29 0
DWIDTH 17 0
BBX 15 13 0 0
BITMAP
0002
0FC6
383C
701C
606C
C0C6
C186
C306
C606
680C
701C
7C78
8FE0
ENDCHAR

STARTCHAR char249
ENCODING 249
SWIDTH 29 0
DWIDTH 17 0
BBX 13 16 1 0
BITMAP
0C00
0400
0400
0000
C030
C030
C030
C030
C030
C030
C030
C030
C030
E030
7060
1F80
ENDCHAR

STARTCHAR char250
ENCODING 250
SWIDTH 29 0
DWIDTH 17 0
BBX 13 16 1 0
BITMAP
0300
0200
0200
0000
C030
C030
C030
C030
C030
C030
C030
C030
C030
E030
7060
1F80
ENDCHAR

STARTCHAR char251
ENCODING 251
SWIDTH 29 0
DWIDTH 17 0
BBX 13 17 1 0
BITMAP
0600
0F00
0980
11C0
0000
C030
C030
C030
C030
C030
C030
C030
C030
C030
E030
7060
1F80
ENDCHAR

STARTCHAR char252
ENCODING 252
SWIDTH 29 0
DWIDTH 17 0
BBX 13 15 1 0
BITMAP
18C0
0000
0000
C030
C030
C030
C030
C030
C030
C030
C030
C030
C030
7060
3FC0
ENDCHAR

STARTCHAR char255
ENCODING 255
SWIDTH 16 0
DWIDTH 14 0
BBX 12 15 0 0
BITMAP
3180
0000
0000
4060
6060
30C0
1980
1D00
0F00
0600
0600
0600
0600
0600
0E00
ENDCHAR
ENDFONT
